<svg width="25" height="16" viewBox="0 0 25 16" fill="none" xmlns="http://www.w3.org/2000/svg">
<path d="M12.0098 2C14.6198 2 16.8998 3.86 17.4098 6.43L17.7098 7.93L19.2298 8.04C20.7898 8.15 22.0098 9.45 22.0098 11C22.0098 12.65 20.6598 14 19.0098 14H6.00977C3.79977 14 2.00977 12.21 2.00977 10C2.00977 7.95 3.53977 6.24 5.56977 6.03L6.63977 5.92L7.13977 4.97C7.59857 4.07391 8.29632 3.3222 9.15581 2.79803C10.0153 2.27386 11.003 1.99766 12.0098 2ZM12.0098 0C9.11977 0 6.59977 1.64 5.34977 4.04C2.34977 4.36 0.00976562 6.91 0.00976562 10C0.00976562 13.31 2.69977 16 6.00977 16H19.0098C21.7698 16 24.0098 13.76 24.0098 11C24.0098 8.36 21.9598 6.22 19.3698 6.04C18.6798 2.59 15.6498 0 12.0098 0Z" fill="white"/>
<path d="M8.37576 8.047C8.40004 8.0169 8.43294 8 8.46725 8C8.50156 8 8.53446 8.0169 8.55874 8.047C8.64902 8.15907 8.98925 8.60714 9.3079 9.18614C9.62258 9.75807 9.9345 10.4894 9.9345 11.1606C9.9345 11.8122 9.77621 12.3121 9.50469 12.6492C9.23402 12.9856 8.8641 13.1427 8.46725 13.1427C8.07058 13.1427 7.70066 12.9856 7.42982 12.6492C7.15829 12.3121 7 11.812 7 11.1606C7 10.4894 7.31192 9.75807 7.6266 9.18614C7.94526 8.60714 8.28549 8.15907 8.37576 8.047V8.047Z" fill="white"/>
<path d="M13.3758 5.047C13.4 5.0169 13.4329 5 13.4673 5C13.5016 5 13.5345 5.0169 13.5587 5.047C13.649 5.15907 13.9892 5.60714 14.3079 6.18614C14.6226 6.75807 14.9345 7.48943 14.9345 8.16057C14.9345 8.81222 14.7762 9.31214 14.5047 9.64922C14.234 9.98564 13.8641 10.1427 13.4673 10.1427C13.0706 10.1427 12.7007 9.98564 12.4298 9.64922C12.1583 9.31214 12 8.812 12 8.16057C12 7.48943 12.3119 6.75807 12.6266 6.18614C12.9453 5.60714 13.2855 5.15907 13.3758 5.047V5.047Z" fill="white"/>
</svg>
