<svg width="17" height="10" viewBox="0 0 17 10" fill="none" xmlns="http://www.w3.org/2000/svg">
<path d="M8.5 0.997594C7.65842 0.997482 6.83823 1.26268 6.15602 1.75548C5.47382 2.24828 4.96433 2.94361 4.7 3.74259C4.68136 3.80721 4.64989 3.86741 4.60745 3.91958C4.565 3.97175 4.51248 4.01482 4.453 4.04622C4.39353 4.07762 4.32833 4.09669 4.26131 4.10231C4.1943 4.10792 4.12683 4.09996 4.06297 4.07889C3.9991 4.05783 3.94013 4.02409 3.88961 3.97971C3.83908 3.93533 3.79802 3.88121 3.7689 3.82059C3.73977 3.75997 3.72318 3.6941 3.7201 3.62691C3.71703 3.55973 3.72753 3.49262 3.751 3.42959C4.0981 2.3814 4.78228 1.47751 5.69687 0.858853C6.61146 0.240199 7.70504 -0.0584472 8.80713 0.00947691C9.90921 0.077401 10.9578 0.508078 11.7895 1.23436C12.6212 1.96064 13.1892 2.94171 13.405 4.02459C14.1593 4.12647 14.8466 4.51123 15.3278 5.10093C15.809 5.69063 16.048 6.44118 15.9966 7.20055C15.9451 7.95991 15.6069 8.67132 15.0505 9.19067C14.4941 9.71001 13.7611 9.99846 13 9.99759H0.5C0.367392 9.99759 0.240215 9.94492 0.146447 9.85115C0.0526784 9.75738 0 9.6302 0 9.49759C0 9.36499 0.0526784 9.23781 0.146447 9.14404C0.240215 9.05027 0.367392 8.99759 0.5 8.99759H13C13.5304 8.99773 14.0392 8.78714 14.4144 8.41216C14.7895 8.03718 15.0004 7.52853 15.0005 6.99809C15.0006 6.46766 14.79 5.9589 14.4151 5.58373C14.0401 5.20857 13.5314 4.99773 13.001 4.99759H12.975C12.8514 4.99834 12.7319 4.95328 12.6396 4.8711C12.5472 4.78892 12.4886 4.67545 12.475 4.55259C12.3656 3.57492 11.8997 2.67186 11.1664 2.01604C10.4331 1.36022 9.48378 0.997636 8.5 0.997594V0.997594ZM0 5.49759C0 5.36499 0.0526784 5.23781 0.146447 5.14404C0.240215 5.05027 0.367392 4.99759 0.5 4.99759H7.5C7.63261 4.99759 7.75979 5.05027 7.85355 5.14404C7.94732 5.23781 8 5.36499 8 5.49759C8 5.6302 7.94732 5.75738 7.85355 5.85115C7.75979 5.94492 7.63261 5.99759 7.5 5.99759H0.5C0.367392 5.99759 0.240215 5.94492 0.146447 5.85115C0.0526784 5.75738 0 5.6302 0 5.49759ZM0 7.49759C0 7.36499 0.0526784 7.23781 0.146447 7.14404C0.240215 7.05027 0.367392 6.99759 0.5 6.99759H9.5C9.63261 6.99759 9.75979 7.05027 9.85355 7.14404C9.94732 7.23781 10 7.36499 10 7.49759C10 7.6302 9.94732 7.75738 9.85355 7.85115C9.75979 7.94492 9.63261 7.99759 9.5 7.99759H0.5C0.367392 7.99759 0.240215 7.94492 0.146447 7.85115C0.0526784 7.75738 0 7.6302 0 7.49759Z" fill="white"/>
</svg>
