<svg width="22" height="31" viewBox="0 0 22 31" fill="none" xmlns="http://www.w3.org/2000/svg">
<path d="M20.1373 13.6315L12.0352 0.541781C11.9177 0.374389 11.7624 0.237928 11.5823 0.143771C11.4022 0.049614 11.2026 0.000488281 11 0.000488281C10.7974 0.000488281 10.5978 0.049614 10.4177 0.143771C10.2376 0.237928 10.0823 0.374389 9.96478 0.541781L1.826 13.6935C0.695304 15.5439 0.0654693 17.6641 0 19.8403C0 22.8001 1.15893 25.6388 3.22183 27.7317C5.28473 29.8247 8.08262 31.0005 11 31.0005C13.9174 31.0005 16.7153 29.8247 18.7782 27.7317C20.8411 25.6388 22 22.8001 22 19.8403C21.9297 17.6402 21.2871 15.4982 20.1373 13.6315V13.6315ZM11 28.5204C8.73182 28.5175 6.55737 27.602 4.95352 25.9748C3.34968 24.3476 2.44736 22.1415 2.44444 19.8403C2.50941 18.1062 3.02281 16.42 3.93311 14.9509L5.07589 13.1032L17.3886 25.5952C16.5889 26.5144 15.6057 27.2507 14.5044 27.7552C13.403 28.2597 12.2085 28.521 11 28.5217V28.5204Z" fill="white"/>
</svg>
