<svg width="74" height="139" viewBox="0 0 74 139" fill="none" xmlns="http://www.w3.org/2000/svg">
<path d="M38.8056 91.7596V41.3416H30.1945V91.8888C27.3218 92.9044 24.9006 94.903 23.3589 97.5311C21.8172 100.159 21.2542 103.248 21.7694 106.251C22.2847 109.254 23.845 111.978 26.1746 113.942C28.5042 115.906 31.4531 116.983 34.5001 116.983C37.5471 116.983 40.496 115.906 42.8256 113.942C45.1552 111.978 46.7155 109.254 47.2307 106.251C47.746 103.248 47.183 100.159 45.6413 97.5311C44.0995 94.903 41.6784 92.9044 38.8056 91.8888V91.7596Z" fill="white"/>
<path d="M68.9445 56.5833C70.0864 56.5833 71.1815 56.1297 71.9889 55.3222C72.7964 54.5148 73.25 53.4197 73.25 52.2777C73.25 51.1358 72.7964 50.0407 71.9889 49.2333C71.1815 48.4258 70.0864 47.9722 68.9445 47.9722H59.9889V39.3611H68.9445C70.0864 39.3611 71.1815 38.9075 71.9889 38.1C72.7964 37.2926 73.25 36.1974 73.25 35.0555C73.25 33.9136 72.7964 32.8185 71.9889 32.011C71.1815 31.2036 70.0864 30.75 68.9445 30.75H59.9889V26.4444C59.9889 19.593 57.2672 13.0222 52.4225 8.17749C47.5778 3.3328 41.007 0.611084 34.1556 0.611084C27.3041 0.611084 20.7333 3.3328 15.8886 8.17749C11.044 13.0222 8.32224 19.593 8.32224 26.4444V81.5986C4.02228 86.6428 1.26908 92.8206 0.392947 99.3908C-0.483182 105.961 0.554977 112.644 3.38287 118.639C6.21077 124.634 10.7083 129.685 16.3358 133.187C21.9633 136.69 28.4818 138.494 35.1092 138.383C41.7365 138.273 48.1913 136.253 53.699 132.565C59.2066 128.877 63.5333 123.678 66.1599 117.593C68.7864 111.507 69.6013 104.793 68.5067 98.2555C67.4121 91.7183 64.4546 85.6356 59.9889 80.7375V73.8055H68.9445C70.0864 73.8055 71.1815 73.3519 71.9889 72.5445C72.7964 71.737 73.25 70.6419 73.25 69.5C73.25 68.3581 72.7964 67.2629 71.9889 66.4555C71.1815 65.648 70.0864 65.1944 68.9445 65.1944H59.9889V56.5833H68.9445ZM60.3333 103.944C60.3347 108.162 59.3032 112.317 57.329 116.044C55.3547 119.772 52.4978 122.959 49.0078 125.328C45.5177 127.696 41.5007 129.175 37.3077 129.633C33.1147 130.092 28.8732 129.516 24.9537 127.958C21.0343 126.399 17.5561 123.904 14.8231 120.691C12.09 117.479 10.1853 113.645 9.27518 109.527C8.36508 105.408 8.47733 101.129 9.60213 97.0639C10.7269 92.9986 12.8301 89.2706 15.7278 86.2055L16.8903 84.9569V26.4444C16.8903 21.8768 18.7048 17.4963 21.9346 14.2665C25.1644 11.0367 29.5449 9.22219 34.1125 9.22219C38.6801 9.22219 43.0607 11.0367 46.2905 14.2665C49.5203 17.4963 51.3347 21.8768 51.3347 26.4444V84.3111L52.6264 85.5597C55.0647 87.9609 57.0016 90.8226 58.3247 93.9787C59.6477 97.1348 60.3305 100.522 60.3333 103.944V103.944Z" fill="white"/>
</svg>
