<svg width="41" height="41" viewBox="0 0 41 41" fill="none" xmlns="http://www.w3.org/2000/svg">
<path d="M16.2812 40.1875C14.4171 40.1853 12.63 39.4438 11.3119 38.1256C9.99374 36.8075 9.25223 35.0204 9.25 33.1562H12.0625C12.0625 33.9906 12.3099 34.8063 12.7735 35.5001C13.2371 36.1938 13.8959 36.7346 14.6668 37.0539C15.4377 37.3732 16.2859 37.4567 17.1043 37.2939C17.9226 37.1312 18.6744 36.7294 19.2644 36.1394C19.8544 35.5494 20.2562 34.7976 20.4189 33.9793C20.5817 33.1609 20.4982 32.3127 20.1789 31.5418C19.8596 30.7709 19.3188 30.112 18.6251 29.6485C17.9313 29.1849 17.1156 28.9375 16.2812 28.9375H3.625V26.125H16.2812C18.1461 26.125 19.9345 26.8658 21.2531 28.1844C22.5717 29.503 23.3125 31.2914 23.3125 33.1562C23.3125 35.0211 22.5717 36.8095 21.2531 38.1281C19.9345 39.4467 18.1461 40.1875 16.2812 40.1875Z" fill="white"/>
<path d="M33.1562 33.1562C31.2921 33.154 29.505 32.4125 28.1869 31.0944C26.8687 29.7762 26.1272 27.9891 26.125 26.125H28.9375C28.9375 26.9594 29.1849 27.775 29.6485 28.4688C30.112 29.1626 30.7709 29.7033 31.5418 30.0226C32.3127 30.3419 33.1609 30.4255 33.9793 30.2627C34.7976 30.0999 35.5494 29.6981 36.1394 29.1081C36.7294 28.5181 37.1312 27.7664 37.2939 26.948C37.4567 26.1297 37.3732 25.2814 37.0539 24.5106C36.7346 23.7397 36.1938 23.0808 35.5001 22.6172C34.8063 22.1537 33.9906 21.9062 33.1562 21.9062H0.8125V19.0938H33.1562C35.0211 19.0938 36.8095 19.8345 38.1281 21.1532C39.4467 22.4718 40.1875 24.2602 40.1875 26.125C40.1875 27.9898 39.4467 29.7782 38.1281 31.0968C36.8095 32.4155 35.0211 33.1562 33.1562 33.1562Z" fill="white"/>
<path d="M27.5312 14.875H6.4375V12.0625H27.5312C28.3656 12.0625 29.1813 11.8151 29.8751 11.3515C30.5688 10.888 31.1096 10.2291 31.4289 9.4582C31.7482 8.68732 31.8317 7.83907 31.6689 7.02072C31.5062 6.20236 31.1044 5.45065 30.5144 4.86065C29.9244 4.27064 29.1726 3.86885 28.3543 3.70607C27.5359 3.54328 26.6877 3.62683 25.9168 3.94614C25.1459 4.26544 24.487 4.80617 24.0235 5.49994C23.5599 6.19371 23.3125 7.00936 23.3125 7.84375H20.5C20.5 6.4531 20.9124 5.09368 21.685 3.9374C22.4576 2.78112 23.5557 1.8799 24.8405 1.34773C26.1253 0.815547 27.5391 0.676304 28.903 0.947607C30.2669 1.21891 31.5198 1.88857 32.5031 2.87191C33.4864 3.85525 34.1561 5.1081 34.4274 6.47202C34.6987 7.83595 34.5595 9.2497 34.0273 10.5345C33.4951 11.8193 32.5939 12.9174 31.4376 13.69C30.2813 14.4626 28.9219 14.875 27.5312 14.875Z" fill="white"/>
</svg>
